<svg id="图层_1" data-name="图层 1" xmlns="http://www.w3.org/2000/svg" viewBox="0 0 5952.76 850.39"><defs><style>.cls-1{fill:#fff;}.cls-2{fill:#1e88e5;}</style></defs><title>3.1 - BWLabs_左logo右文字-不内嵌</title><path class="cls-1" d="M632.26,555.35l49.15,38.51,1.11.65a317.72,317.72,0,0,1-99.37,84.54l-79.23-73.9,0,0h0l-18,4.66-18,4.79v0h0L435.24,717.93a317.65,317.65,0,0,1-128.1-24.76l.65-1.11,37.92-91.68-17.82-10.32-63,81.57A318.18,318.18,0,0,1,146.4,544.32l47.26-81.61L73.74,494.23c51.84,197.22,253.74,315.08,451,263.24C635.53,728.33,721.29,651.8,766,555.35ZM513,708.19a229.55,229.55,0,0,1-37.59,6.58l8.07-62,26.88-7.22,37.76,50.35A228.74,228.74,0,0,1,513,708.19Z"/><path class="cls-2" d="M598.83,127.06l-63,81.57L518,198.32l37.92-91.69.64-1.11A317.49,317.49,0,0,0,430.17,80.73L395.86,184.1l-.09,0L377.26,189l19.64,73.72,57.25-52.11,13,11-44,69.18a2.27,2.27,0,0,1-.18.25l-.94,1.11,41.29,99.54,51.48-13.72,62.79-81.28L595.43,307l-23,55.61,97.2-25.91,47.68-82.31A318.32,318.32,0,0,0,598.83,127.06Z"/><path class="cls-2" d="M351.48,420.87l51.58-13.37-13-107-1.36-.51-.29-.13L316.08,261.3l6-16,75.47,17.23-19.14-73.85-18.54,4.81,0,0-79.24-73.91a317.56,317.56,0,0,0-99.38,84.55l1.1.65L260.4,266,250,283.77l-95-40a318.17,318.17,0,0,0-40.57,169.11l82,48.23,97.38-25.24-47.37-37.11L256.85,381Z"/><path class="cls-2" d="M383.45,152.81,396.3,84.35A325,325,0,0,0,311,107.07l45.52,52.45Z"/><path class="cls-1" d="M974.82,200h158.1a132.14,132.14,0,0,1,62.44,15.38,120.48,120.48,0,0,1,46.45,42.45q17.2,27.08,17.22,60.9,0,32-16.3,56t-44,36.91v2.46q33.23,11.08,54.14,38.15t20.92,63.36q0,35.68-18.15,64.29a125.73,125.73,0,0,1-48.6,44.6,138.72,138.72,0,0,1-65.52,16H974.82Zm158.1,190.71q22.14,0,39.06-10.46a74.15,74.15,0,0,0,26.15-26.76,67.24,67.24,0,0,0,9.23-33.53q0-16.61-8.92-32.91a73.4,73.4,0,0,0-25.23-26.76q-16.31-10.45-37.83-10.46H1026.49V390.75Zm11.69,199.93q22.14,0,39.68-11.07A77,77,0,0,0,1211.36,551a74.52,74.52,0,0,0,9.53-36q0-18.45-9.84-36a76.38,76.38,0,0,0-27.68-28.3Q1165.52,440,1142.15,440H1026.49V590.68Z"/><path class="cls-1" d="M1337.15,200h52.29V640.51h-52.29Z"/><path class="cls-1" d="M1502.64,636.82q-27.08-13.53-41.83-37.22t-14.76-53.83q0-49.83,37.52-77.82t94.74-28a214.54,214.54,0,0,1,52.6,6.15q24.3,6.17,37.22,14.15V441.19q0-35.07-24.61-56.29t-62.13-21.22a104.81,104.81,0,0,0-48.6,11.38,88.87,88.87,0,0,0-35.07,31.68l-39.37-29.53q18.45-28.29,50.75-44.29t71.67-16q64,0,100.59,33.53t36.6,91.36v198.7h-49.83V595.6h-2.46q-13.55,22.77-40.6,38.76t-60.91,16Q1529.71,650.35,1502.64,636.82Zm115.66-46.14a102.61,102.61,0,0,0,36.3-36.29,95.81,95.81,0,0,0,13.53-49.83q-14.76-9.84-36.3-16a165.4,165.4,0,0,0-45.52-6.15q-43.07,0-64.9,17.84t-21.84,46.14q0,25.83,19.68,41.83t49.83,16A94.59,94.59,0,0,0,1618.3,590.68Z"/><path class="cls-1" d="M1847.76,628.52a152.3,152.3,0,0,1-56.59-59.68q-20.31-37.83-20.3-85.2t20.3-85.51q20.3-38.14,56.59-59.67t81.82-21.54q51.06,0,85.82,23.69a129.72,129.72,0,0,1,49.53,63.06l-47.37,19.68q-11.7-28.91-34.76-44t-55.68-15.08a95.36,95.36,0,0,0-51.67,15.08q-24,15.08-38.45,42.14t-14.46,62.13q0,35.07,14.46,62.13t38.45,42.14A95.28,95.28,0,0,0,1927.12,603q33.23,0,57.22-15.38T2020,543.93l46.75,19.68q-16,38.76-51.37,62.75t-85.82,24Q1884.06,650.35,1847.76,628.52Z"/><path class="cls-1" d="M2123.36,200h52.29V476.87l147.65-150.1h66.44v2.46l-123,124.27,126.11,184.55v2.46h-62.13L2229.79,489.79l-54.14,54.14v96.58h-52.29Z"/><path class="cls-1" d="M2405.73,200h57.82l80,323.59,7.38,30.14h2.46l9.23-30.14L2661,200h54.13l94.13,323.59,9.23,30.14H2821L2907.72,200h57.83L2846.82,640.51h-54.14l-93.51-318.66-9.84-34.45h-2.46l-10.46,34.45-97.2,318.66h-54.14Z"/><path class="cls-1" d="M3028.91,636.82q-27.09-13.53-41.84-37.22t-14.76-53.83q0-49.83,37.52-77.82t94.74-28a214.54,214.54,0,0,1,52.6,6.15q24.3,6.17,37.22,14.15V441.19q0-35.07-24.61-56.29t-62.13-21.22a104.81,104.81,0,0,0-48.6,11.38A88.87,88.87,0,0,0,3024,406.74l-39.37-29.53q18.46-28.29,50.75-44.29t71.67-16q64,0,100.59,33.53t36.6,91.36v198.7h-49.83V595.6h-2.46q-13.54,22.77-40.6,38.76t-60.91,16Q3056,650.35,3028.91,636.82Zm115.65-46.14a102.61,102.61,0,0,0,36.3-36.29,95.81,95.81,0,0,0,13.53-49.83q-14.76-9.84-36.3-16a165.4,165.4,0,0,0-45.52-6.15q-43.07,0-64.9,17.84t-21.84,46.14q0,25.83,19.68,41.83t49.84,16A94.58,94.58,0,0,0,3144.56,590.68Z"/><path class="cls-1" d="M3316.81,200h52.29V640.51h-52.29Z"/><path class="cls-1" d="M3446.61,326.77h49.83v46.14h2.46q12.92-23.39,41.22-39.68a118.83,118.83,0,0,1,60.29-16.31q56.58,0,86.43,32.92t29.84,89.51V640.51h-52.29V447.34q0-43.66-20.92-63.36t-57.21-19.69A76.38,76.38,0,0,0,3541,378.44,95.21,95.21,0,0,0,3510,415.66,110.31,110.31,0,0,0,3498.9,464V640.51h-52.29Z"/><path class="cls-1" d="M3819.1,617.14q-29.85-33.23-29.84-92.9V326.77h52.29V516.24q0,44.93,20.3,65.83T3916.61,603q26.43,0,47.06-14.15a96.34,96.34,0,0,0,32-36.91,106,106,0,0,0,11.38-48V326.77h52.29V640.51H4009.5V595H4007q-12.93,23.38-41.22,39.37a120.68,120.68,0,0,1-60.29,16Q3848.92,650.35,3819.1,617.14Z"/><path class="cls-1" d="M4225.11,639.28a80.66,80.66,0,0,1-27.38-16.61,75.41,75.41,0,0,1-18.45-27.07q-6.16-15.36-6.15-37.52V374.14h-54.76V326.77h54.76V238.18h52.29v88.59h76.28v47.37h-76.28v171q0,25.83,9.84,38.14,11.68,13.55,33.84,13.53,17.83,0,34.45-10.45v51.06a80.53,80.53,0,0,1-18.77,6.15,131.7,131.7,0,0,1-24.3,1.84A99.38,99.38,0,0,1,4225.11,639.28Z"/><path class="cls-1" d="M4518.24,200h51.68V590.68h193.16v49.83H4518.24Z"/><path class="cls-1" d="M4859.66,636.82q-27.08-13.53-41.83-37.22t-14.77-53.83q0-49.83,37.53-77.82t94.74-28a214.54,214.54,0,0,1,52.6,6.15q24.28,6.17,37.22,14.15V441.19q0-35.07-24.61-56.29t-62.13-21.22a104.81,104.81,0,0,0-48.6,11.38,88.8,88.8,0,0,0-35.07,31.68l-39.37-29.53q18.45-28.29,50.75-44.29t71.67-16q64,0,100.58,33.53T5075,441.81v198.7h-49.83V595.6h-2.46q-13.54,22.77-40.61,38.76t-60.9,16Q4886.73,650.35,4859.66,636.82Zm115.66-46.14a102.58,102.58,0,0,0,36.29-36.29,95.73,95.73,0,0,0,13.54-49.83q-14.77-9.84-36.3-16a165.4,165.4,0,0,0-45.52-6.15q-43.08,0-64.91,17.84t-21.83,46.14q0,25.83,19.68,41.83t49.83,16A94.59,94.59,0,0,0,4975.32,590.68Z"/><path class="cls-1" d="M5242.61,634.05q-28.6-16.29-42.76-39.68h-2.46v46.14h-49.83V200h52.29v129.8l-2.46,43.68h2.46q14.14-24,42.76-40.29t64.29-16.31q41.82,0,76.28,21.54t54.14,59.67Q5457,436.28,5457,483.64q0,48-19.68,85.82t-54.14,59.36q-34.45,21.52-76.28,21.53Q5271.22,650.35,5242.61,634.05Zm109.2-45.83q24-14.76,38.44-42.14t14.46-62.44q0-35.07-14.46-62.44t-38.44-42.14a95.66,95.66,0,0,0-102.13,0q-24,14.76-38.14,41.83t-14.15,62.75q0,35.69,14.15,62.75t38.14,41.83a95.66,95.66,0,0,0,102.13,0Z"/><path class="cls-1" d="M5540.05,626.67q-33.84-23.67-48-60.6l46.75-20.91q11.68,28.3,34.76,43.68a89.61,89.61,0,0,0,50.75,15.38q29.54,0,50.45-12t20.91-34.14q0-19.68-16.61-31.68t-52.29-20.61l-38.14-9.85q-37.53-9.22-61.52-31.37t-24-57.21q0-27.08,16.3-47.68T5562.81,328a152.94,152.94,0,0,1,58.45-11.08q41.2,0,73.51,17.84t45.83,49.83l-45.52,20.92q-20.92-41.82-74.44-41.83-25.83,0-45.22,12t-19.37,30.46a34.07,34.07,0,0,0,13.53,28q13.53,10.77,40.6,17.53l45.53,11.69q46.14,11.69,69.51,34.76t23.38,56.29q0,28.92-16.61,50.75t-44.91,33.53q-28.31,11.67-62.75,11.68Q5573.89,650.35,5540.05,626.67Z"/><path class="cls-1" d="M5812.27,632.82q-11.4-11.37-11.38-28a37.27,37.27,0,0,1,11.38-27.37q11.37-11.38,28-11.39A38.87,38.87,0,0,1,5879,604.83q0,16.6-11.38,28a37.27,37.27,0,0,1-27.37,11.38Q5823.64,644.2,5812.27,632.82Z"/></svg>